<svg xmlns="http://www.w3.org/2000/svg" xmlns:xlink="http://www.w3.org/1999/xlink" width="96.885" height="103.785" viewBox="0 0 96.885 103.785">
  <defs>
    <clipPath id="clip-path">
      <path id="Path_23073" data-name="Path 23073" d="M0-227.939H96.884V-331.724H0Z" transform="translate(0 331.724)" fill="none"/>
    </clipPath>
  </defs>
  <g id="Group_7760" data-name="Group 7760" transform="translate(0 331.724)">
    <g id="Group_7770" data-name="Group 7770" transform="translate(0 -331.724)" clip-path="url(#clip-path)">
      <g id="Group_7760-2" data-name="Group 7760" transform="translate(0 21.215)">
        <path id="Path_23064" data-name="Path 23064" d="M-87.048,0s-31.226,8.045-39.562,35.548c-.488,2.906,1.577,6.444,2.867,2.867s3.375-16.388,33.254-36.122C-87.307.4-87.048,0-87.048,0" transform="translate(126.683 0)" fill="#9a9b9f"/>
      </g>
      <g id="Group_7761" data-name="Group 7761" transform="translate(31.972 30.753)">
        <path id="Path_23065" data-name="Path 23065" d="M-1.719-26.9S12.156-41.4,33.256-33.209,59.631-8.555,59.631-8.555s4.176.986,2.293-3.44S53.451-32.2,30.389-38.37C8.66-42.456-2.292-29.2-2.292-29.2s-.743,2.076.573,2.293" transform="translate(2.501 39.152)" fill="#9a9b9f"/>
      </g>
      <g id="Group_7762" data-name="Group 7762" transform="translate(19.085 48.422)">
        <path id="Path_23066" data-name="Path 23066" d="M-9.844-19.687a4.482,4.482,0,0,0,4.482-4.482,4.482,4.482,0,0,0-4.482-4.482,4.482,4.482,0,0,0-4.482,4.482,4.482,4.482,0,0,0,4.482,4.482" transform="translate(14.326 28.651)" fill="#7b7c7c"/>
      </g>
      <g id="Group_7763" data-name="Group 7763" transform="translate(17.506 44.225)">
        <path id="Path_23067" data-name="Path 23067" d="M-25.665-21.025s3.368-8.169-5.213-5.957c-4.892,1.549-5.029,6.891-2.234,8.191A16.2,16.2,0,0,0-28.644-17.3s2.861,3.182-5.213.745c-5.284-1.6-3.99-9.413,0-11.915s7.41-3.15,9.681,0,1.069,5.294,0,6.7-1.638,1.98-1.489.745" transform="translate(37.351 30.598)" fill="#9a9b9f"/>
      </g>
      <g id="Group_7764" data-name="Group 7764" transform="translate(41.606 2.251)">
        <path id="Path_23068" data-name="Path 23068" d="M-18.328-.347c-.318.282-8.755,5.8-8.33,7.928S-21.7,16.5-21.7,16.5s9.768-8.211,10.335-9.768-5.521-8.353-6.96-7.079" transform="translate(26.674 0.505)" fill="#7a7c80"/>
      </g>
      <g id="Group_7765" data-name="Group 7765" transform="translate(39.471 0)">
        <path id="Path_23069" data-name="Path 23069" d="M-24.286,0c-.222-.049-7.073,4.584-8.027,5.16s-.573,2.867-.573,2.867a10.154,10.154,0,0,0-1.72,0,1.734,1.734,0,0,0,0,2.867c1.371,1.253,4.855,8.133,5.16,9.174s2.3,2.938,2.293.573.353-2.529-1.147-4.587-2.412-3.157-2.867-4.014-1.246-2.555.573-4.013,5.775-4.849,6.881-4.013A24.922,24.922,0,0,1-19.7,8.6c.6,1.014,2.1,2.545,1.147,3.44s-5.734,6.307-5.734,6.307-1.421.9.573.573a10.135,10.135,0,0,0,4.587-2.294c.862-.731,4.49-3.513,4.587-4.013s.651-1.914-1.147-4.013S-22.5,1.211-23.139.573-23.259.228-24.286,0" transform="translate(35.343 0.001)" fill="#9a9b9f"/>
      </g>
      <g id="Group_7766" data-name="Group 7766" transform="translate(10.321 93.394)">
        <path id="Path_23070" data-name="Path 23070" d="M0-.692,0,9.384H2.426l0-10.076ZM11.55,0A3.85,3.85,0,0,0,8.879-.983a3.477,3.477,0,0,0-1.817.477,2.527,2.527,0,0,0-1,1.067A5.28,5.28,0,0,0,5.837-.692H3.454Q3.6.246,3.612.423q.01.138.011.267l0,6.674h2.44V2.985a2.3,2.3,0,0,1,.673-1.7A1.939,1.939,0,0,1,8.153.649a1.868,1.868,0,0,1,1.383.6,2.355,2.355,0,0,1,.649,1.536,3.267,3.267,0,0,1-.55,2.182A2.248,2.248,0,0,1,7.7,5.942a2.806,2.806,0,0,1-.841-.129l.521,1.551a4.242,4.242,0,0,0,.952.089H8.5a4.079,4.079,0,0,0,3.121-1.24A4.592,4.592,0,0,0,12.79,2.944c0-.108-.007-.215-.015-.323A3.747,3.747,0,0,0,11.55,0m10,0a3.851,3.851,0,0,0-2.671-.986,3.477,3.477,0,0,0-1.817.477,2.527,2.527,0,0,0-1,1.067,5.28,5.28,0,0,0-.225-1.252H13.451Q13.6.246,13.61.423q.01.138.011.267l0,6.674h2.44V2.985a2.3,2.3,0,0,1,.673-1.7A1.939,1.939,0,0,1,18.151.649a1.868,1.868,0,0,1,1.383.6,2.355,2.355,0,0,1,.649,1.536,3.268,3.268,0,0,1-.55,2.182,2.248,2.248,0,0,1-1.936.978,2.806,2.806,0,0,1-.841-.129l.521,1.551a4.242,4.242,0,0,0,.952.089h.17a4.079,4.079,0,0,0,3.121-1.24,4.592,4.592,0,0,0,1.169-3.269q0-.161-.015-.323A3.747,3.747,0,0,0,21.548,0M35.264-.175a6.166,6.166,0,0,0-3.307-.832,13.444,13.444,0,0,0-2.4.218A6.069,6.069,0,0,0,27.9-.3,3.226,3.226,0,0,1,28.409.932q.006.081,0,.186v3.83q0,1.067-.919,1.067A1.9,1.9,0,0,1,26.68,5.8l.28,1.463a2.738,2.738,0,0,0,1.543.347,2.111,2.111,0,0,0,1.816-.832,3.027,3.027,0,0,0,.533-1.858l0-4.331a4.911,4.911,0,0,1,.563-.033,3.663,3.663,0,0,1,1.948.469,2.142,2.142,0,0,1,1.03,1.786,1.772,1.772,0,0,1,0,.234l0,4.323h2.432l0-4.9q0-.113-.008-.226A2.988,2.988,0,0,0,35.264-.175m8.468-.517L42.191,1.651,40.063-.692h-2.9l5.751,6.44H37.459V7.364h8.42l0-1.567-2.143-2.57L46.237-.692Zm3,0,0,8.056h2.424l0-8.056ZM57.3,5.748l0-3.289a2.487,2.487,0,0,0,0-.283A3.007,3.007,0,0,0,55.982-.191a5.215,5.215,0,0,0-3.055-.816,8.373,8.373,0,0,0-2.8.4l-.193,1.632A4.237,4.237,0,0,1,51.979.577,3.327,3.327,0,0,1,54,1.158a2.068,2.068,0,0,1,.863,1.6q.007.1.005.186l0,2.8H49.723V7.364h8.67V5.748ZM66.082.011A6.455,6.455,0,0,0,62.31-1.007a6.7,6.7,0,0,0-3.286.727l-.21,1.616A4.849,4.849,0,0,1,61.507.56a4.415,4.415,0,0,1,2.523.663,2.243,2.243,0,0,1,1.057,1.77,2.745,2.745,0,0,1,0,.355,2.591,2.591,0,0,1-.951,1.883,3.142,3.142,0,0,1-2.082.727h-.048l.7,1.511h.073A5.138,5.138,0,0,0,66.11,6.306,4,4,0,0,0,67.677,3.17q0-.194-.011-.388A3.528,3.528,0,0,0,66.082.011M59.026,2.3l0,7.07h2.424l0-7.07ZM76.39,0a3.85,3.85,0,0,0-2.671-.986A3.476,3.476,0,0,0,71.9-.506,2.528,2.528,0,0,0,70.9.56a5.248,5.248,0,0,0-.225-1.252H68.293q.146.938.159,1.115.009.138.011.267l0,6.674H70.9V2.985a2.3,2.3,0,0,1,.673-1.7A1.939,1.939,0,0,1,72.992.649a1.867,1.867,0,0,1,1.383.6,2.356,2.356,0,0,1,.649,1.536,3.267,3.267,0,0,1-.551,2.182,2.248,2.248,0,0,1-1.935.978,2.8,2.8,0,0,1-.841-.129l.521,1.551a4.241,4.241,0,0,0,.951.089h.17a4.08,4.08,0,0,0,3.121-1.24,4.59,4.59,0,0,0,1.169-3.269q0-.161-.014-.323A3.747,3.747,0,0,0,76.39,0" transform="translate(0 1.007)" fill="#9a9b9f"/>
      </g>
      <g id="Group_7767" data-name="Group 7767" transform="translate(27.22 69.632)">
        <path id="Path_23071" data-name="Path 23071" d="M1054.034,61.977h5.122V43.427h-5.122Zm22.436-9.673a4.392,4.392,0,0,0,2.432-4.028c0-2.862-2.328-4.85-7.088-4.85h-9.261v18.55h9.779c4.863,0,7.45-1.882,7.45-5.088a4.672,4.672,0,0,0-3.311-4.585m-5.329-5.088c1.707,0,2.587.61,2.587,1.776,0,1.192-.88,1.8-2.587,1.8h-3.518V47.217Zm.776,10.971h-4.294V54.425h4.294c1.759,0,2.69.61,2.69,1.881s-.931,1.882-2.69,1.882m13.9,3.789h5.122V47.588h5.536v-4.16h-16.22v4.16h5.562Z" transform="translate(-1054.034 -43.427)" fill="#9a9b9f"/>
      </g>
      <g id="Group_7769" data-name="Group 7769" transform="translate(65.611 88.087) rotate(-90)">
        <g id="Group_7768" data-name="Group 7768" transform="translate(0 0)">
          <path id="Path_23072" data-name="Path 23072" d="M1.334,3.954a1.236,1.236,0,0,0,1.4-1.227C2.735,1.325.94,1.76.94,1.179c0-.19.136-.342.511-.342a1.638,1.638,0,0,1,.877.293L2.6.331A2.059,2.059,0,0,0,1.456,0a1.232,1.232,0,0,0-1.4,1.233c0,1.412,1.8.972,1.8,1.575,0,.185-.145.31-.515.31A1.765,1.765,0,0,1,.294,2.743L0,3.536a2.184,2.184,0,0,0,1.334.418m2.21-.027a.553.553,0,0,0,.515-.614A.542.542,0,0,0,3.544,2.7a.545.545,0,0,0-.515.608.556.556,0,0,0,.515.614M7,3.878h.931l-1.4-3.8H5.653l-1.4,3.8h.913l.249-.739H6.756ZM5.68,2.346,6.087,1.13l.407,1.217Zm2.973,1.58a.553.553,0,0,0,.515-.614.523.523,0,1,0-1.031,0,.556.556,0,0,0,.515.614" transform="translate(0 0)" fill="#9a9b9f"/>
        </g>
      </g>
    </g>
  </g>
</svg>
