<svg xmlns="http://www.w3.org/2000/svg" xmlns:xlink="http://www.w3.org/1999/xlink" width="91.097" height="24.406" viewBox="0 0 91.097 24.406">
  <defs>
    <clipPath id="clip-path">
      <path id="Path_23104" data-name="Path 23104" d="M0-88.141H91.1v-24.406H0Z" transform="translate(0 112.547)" fill="none"/>
    </clipPath>
  </defs>
  <g id="Group_7803" data-name="Group 7803" transform="translate(0 112.547)">
    <g id="Group_7802" data-name="Group 7802" transform="translate(0 -112.547)" clip-path="url(#clip-path)">
      <g id="Group_7799" data-name="Group 7799" transform="translate(52.356 19.221)">
        <path id="Path_23101" data-name="Path 23101" d="M0-.568V4.461H1.21V-.568Zm5.764.347A1.922,1.922,0,0,0,4.431-.713a1.733,1.733,0,0,0-.907.238,1.261,1.261,0,0,0-.5.532,2.631,2.631,0,0,0-.112-.625H1.724Q1.8-.1,1.8-.011q0,.069.005.133V3.453H3.025V1.267A1.147,1.147,0,0,1,3.361.42.968.968,0,0,1,4.069.1a.932.932,0,0,1,.69.3,1.174,1.174,0,0,1,.324.766,1.63,1.63,0,0,1-.275,1.089,1.122,1.122,0,0,1-.966.488,1.394,1.394,0,0,1-.42-.065l.26.774a2.129,2.129,0,0,0,.475.044h.085A2.036,2.036,0,0,0,5.8,2.878a2.29,2.29,0,0,0,.584-1.631q0-.081-.007-.161A1.871,1.871,0,0,0,5.764-.221m4.989,0A1.922,1.922,0,0,0,9.42-.713a1.733,1.733,0,0,0-.907.238,1.261,1.261,0,0,0-.5.532A2.617,2.617,0,0,0,7.9-.568H6.713q.073.468.079.556,0,.069.005.133V3.453H8.014V1.267A1.146,1.146,0,0,1,8.35.42.968.968,0,0,1,9.058.1a.932.932,0,0,1,.69.3,1.175,1.175,0,0,1,.324.766A1.63,1.63,0,0,1,9.8,2.255a1.122,1.122,0,0,1-.966.488,1.393,1.393,0,0,1-.42-.065l.26.774a2.126,2.126,0,0,0,.475.044h.085a2.036,2.036,0,0,0,1.558-.619,2.291,2.291,0,0,0,.584-1.631q0-.081-.007-.161a1.871,1.871,0,0,0-.612-1.307M17.6-.31a3.076,3.076,0,0,0-1.65-.415,6.705,6.705,0,0,0-1.2.109,3.028,3.028,0,0,0-.826.242,1.609,1.609,0,0,1,.253.617c0,.027,0,.058,0,.093V2.247q0,.532-.459.532a.949.949,0,0,1-.407-.109l.14.73a1.366,1.366,0,0,0,.77.173,1.054,1.054,0,0,0,.906-.415,1.51,1.51,0,0,0,.266-.927l0-2.161a2.48,2.48,0,0,1,.281-.016,1.827,1.827,0,0,1,.972.234,1.069,1.069,0,0,1,.514.891.876.876,0,0,1,0,.117l0,2.157h1.214L18.38,1c0-.038,0-.075,0-.113A1.491,1.491,0,0,0,17.6-.31m4.226-.258L21.055.6,19.994-.568H18.546l2.87,3.214H18.694v.807h4.2l0-.782-1.07-1.282,1.25-1.956Zm1.5,0v4.02h1.21V-.568ZM28.6,2.646l0-1.641a1.27,1.27,0,0,0,0-.141,1.5,1.5,0,0,0-.655-1.181,2.6,2.6,0,0,0-1.525-.407,4.178,4.178,0,0,0-1.4.2l-.1.815A2.115,2.115,0,0,1,25.94.065a1.66,1.66,0,0,1,1.008.29,1.033,1.033,0,0,1,.431.8c0,.032,0,.063,0,.093v1.4H24.814v.807h4.327V2.646ZM32.978-.217A3.222,3.222,0,0,0,31.1-.725a3.341,3.341,0,0,0-1.64.363l-.1.806A2.42,2.42,0,0,1,30.695.057a2.2,2.2,0,0,1,1.259.331,1.12,1.12,0,0,1,.527.883,1.384,1.384,0,0,1,0,.178,1.292,1.292,0,0,1-.475.939,1.568,1.568,0,0,1-1.039.363h-.024l.351.754h.036a2.564,2.564,0,0,0,1.661-.581,2,2,0,0,0,.782-1.565c0-.065,0-.129-.005-.194a1.761,1.761,0,0,0-.79-1.383M29.457.924V4.453h1.21V.924ZM38.122-.221a1.921,1.921,0,0,0-1.333-.492,1.735,1.735,0,0,0-.907.238,1.262,1.262,0,0,0-.5.532,2.629,2.629,0,0,0-.112-.625h-1.19q.073.468.079.556,0,.069.005.133V3.453h1.218V1.267A1.147,1.147,0,0,1,35.719.42.968.968,0,0,1,36.427.1a.932.932,0,0,1,.69.3,1.174,1.174,0,0,1,.324.766,1.632,1.632,0,0,1-.275,1.089,1.122,1.122,0,0,1-.966.488,1.394,1.394,0,0,1-.42-.065l.26.774a2.128,2.128,0,0,0,.475.044H36.6a2.036,2.036,0,0,0,1.558-.619,2.292,2.292,0,0,0,.584-1.631q0-.081-.007-.161a1.869,1.869,0,0,0-.612-1.307" transform="translate(0 0.725)" fill="#003960"/>
      </g>
      <g id="Group_7800" data-name="Group 7800" transform="translate(17.123 4.173)">
        <path id="Path_23102" data-name="Path 23102" d="M-8.5-11.226a2.088,2.088,0,0,1,.98,1.12,3.348,3.348,0,0,0-.42,1.6A3.864,3.864,0,0,0-6.773-5.667,3.864,3.864,0,0,0-3.931-4.5a3.1,3.1,0,0,0,2.324-.952A3.245,3.245,0,0,0-.682-7.809a5.28,5.28,0,0,0-.756-2.913,2.822,2.822,0,0,0-2.492-1.372,4.872,4.872,0,0,0-1.624.308A3.91,3.91,0,0,0-6.661-12.85a5.984,5.984,0,0,0-1.386-.784,6.04,6.04,0,0,1,3.024-.7,9.312,9.312,0,0,1,2.059.294,9.449,9.449,0,0,0,1.61.294,5.851,5.851,0,0,0,1.022-.126A6.9,6.9,0,0,1,.97-14a1.729,1.729,0,0,1,.854.14q.21.141.154.728-.084,1.092-.084,1.372v9.97A11.754,11.754,0,0,1,1.782,0,3.156,3.156,0,0,1-.4,2.525a11.522,11.522,0,0,1-3.612.419A12.862,12.862,0,0,1-7.8,2.413Q-10.344,1.629-10.344,0-10.344-1-8.44-1A2.973,2.973,0,0,1-6.339,0,3.488,3.488,0,0,0-3.763,1.012,3.366,3.366,0,0,0-1.8.452,1.945,1.945,0,0,0-.879-1.256,1.213,1.213,0,0,0-2.251-2.629q-.168,0-1.414.182A13.993,13.993,0,0,1-5.5-2.265,4.944,4.944,0,0,1-9.5-4a6.414,6.414,0,0,1-1.344-4.228,6.653,6.653,0,0,1,.98-3.7,4.558,4.558,0,0,1,1.372.7" transform="translate(10.848 14.334)" fill="#c00"/>
      </g>
      <g id="Group_7801" data-name="Group 7801" transform="translate(0 0)">
        <path id="Path_23103" data-name="Path 23103" d="M-7.484-1.415q1.176,0,1.176,1.344V9.086q0,.532.028.841.14,1.064,1.512,1.288.168.028,2.24.028a3.177,3.177,0,0,1,.812.084q.84.224.84,1.512,0,1.54-1.4,1.54h-6.1q-1.176,0-1.176-1.6V-.071a1.576,1.576,0,0,1,.294-.924.924.924,0,0,1,.8-.42ZM24.833-.407q0,1.428-1.568,1.428-1.485,0-1.484-1.344a1.3,1.3,0,0,1,1.484-1.456q1.568,0,1.568,1.372m-1.2,2.744q1.26,0,1.26,1.988v8.457q0,1.652-1.54,1.652a1.674,1.674,0,0,1-1.176-.364,2.367,2.367,0,0,1-.392-1.652V3.962q0-1.624,1.148-1.624Zm6.3,2.324q-1.149,0-1.148.924a1.284,1.284,0,0,0,.9,1.148,11.042,11.042,0,0,0,1.568.392q3.22.729,3.22,3.417a3.7,3.7,0,0,1-1.372,3.025A4.9,4.9,0,0,1,29.873,14.6a7.3,7.3,0,0,1-2.576-.532q-1.765-.7-1.764-1.708a1.272,1.272,0,0,1,.35-.868,1.074,1.074,0,0,1,.826-.392,3.142,3.142,0,0,1,1.372.56,3.668,3.668,0,0,0,1.932.561,1.542,1.542,0,0,0,.966-.336,1.025,1.025,0,0,0,.434-.84,1.061,1.061,0,0,0-.7-1.036q-.112-.056-2.156-.644-2.885-.812-2.884-3.276a3.457,3.457,0,0,1,1.26-2.772,4.218,4.218,0,0,1,2.94-1.064,7.072,7.072,0,0,1,2.268.42q1.624.532,1.624,1.4a1.243,1.243,0,0,1-.378.854,1.144,1.144,0,0,1-.854.406A3.39,3.39,0,0,1,31.414,5a3.77,3.77,0,0,0-1.484-.336m5.265.42q-.308-.336-.616-.644a1.3,1.3,0,0,1-.392-.9,1.321,1.321,0,0,1,.532-.952,4.086,4.086,0,0,0,.644-.728,3.711,3.711,0,0,0,.2-1.232q0-1.6,1.54-1.6,1.456,0,1.456,1.652a2.376,2.376,0,0,0,.28,1.26,3.735,3.735,0,0,0,.84.616,1.166,1.166,0,0,1,.616,1.008.982.982,0,0,1-.364.784l-.672.448a1.534,1.534,0,0,0-.546.644,4.675,4.675,0,0,0-.154,1.512V9.59a2.92,2.92,0,0,0,.252,1.344q.084.252.9.84a1.53,1.53,0,0,1,.7,1.289q0,1.456-1.568,1.456-3.249,0-3.249-3.332V7.1a3.088,3.088,0,0,0-.392-2.016M43.9-.463q0,1.485-1.568,1.484-1.485,0-1.484-1.344a1.312,1.312,0,0,1,1.484-1.484q1.568,0,1.568,1.344m-1.148,2.8q1.232,0,1.232,1.988v8.457q0,1.652-1.54,1.652a1.647,1.647,0,0,1-1.064-.28q-.5-.392-.5-1.735V3.962q0-1.624,1.176-1.624Zm13.414,9.3q0,1.26-1.876,2.352A5.849,5.849,0,0,1,51.325,15a5.95,5.95,0,0,1-5.069-2.576A9.166,9.166,0,0,1,44.548,6.79a9.373,9.373,0,0,1,1.624-5.6,5.737,5.737,0,0,1,4.985-2.576,6.251,6.251,0,0,1,3.109.98q1.876,1.12,1.876,2.492a1.167,1.167,0,0,1-.532.9A1.662,1.662,0,0,1,54.6,3.4q-.448,0-1.344-.938a2.76,2.76,0,0,0-2.044-.938,3.087,3.087,0,0,0-2.828,1.736A7.059,7.059,0,0,0,47.6,6.706a7.347,7.347,0,0,0,.784,3.528,3.081,3.081,0,0,0,4.914.952q.994-.841,1.3-.84a1.79,1.79,0,0,1,1.064.364,1.1,1.1,0,0,1,.5.924m9.241,1.512a1.027,1.027,0,0,1-1.148,1.176,2.643,2.643,0,0,1-.994-.21,2.348,2.348,0,0,0-.742-.21,4.064,4.064,0,0,0-1.246.35,4.405,4.405,0,0,1-1.61.35,3.271,3.271,0,0,1-2.465-.924,3.425,3.425,0,0,1-.9-2.492q0-3.388,4.565-4.089,1.68-.252,1.68-1.26a1.538,1.538,0,0,0-.392-1.092,1.256,1.256,0,0,0-.952-.42,2.026,2.026,0,0,0-1.442.756,2.143,2.143,0,0,1-1.582.756q-1.12,0-1.12-.924a2.1,2.1,0,0,1,.812-1.568,4.726,4.726,0,0,1,3.136-.924,6.079,6.079,0,0,1,2.941.56q1.456.84,1.456,3.389Zm-5.6-2.3a1.434,1.434,0,0,0,.406,1.036,1.36,1.36,0,0,0,1.022.42,1.817,1.817,0,0,0,1.4-.715,2.3,2.3,0,0,0,.616-1.526q0-1.092-.98-1.092a2.832,2.832,0,0,0-1.6.5,1.666,1.666,0,0,0-.868,1.372m9.8-8.037a2.063,2.063,0,0,0,.672-.126,2.069,2.069,0,0,1,.672-.126q.98,0,.98,1.288A2.541,2.541,0,0,1,71.739,5a1.909,1.909,0,0,1-1.092.784,2.132,2.132,0,0,0-1.54,2.212v4.649q0,1.736-1.2,1.736h-.784q-1.121,0-1.12-1.82V4.1a1.965,1.965,0,0,1,.42-1.456,1.559,1.559,0,0,1,1.036-.308,3.973,3.973,0,0,1,1.358.238,3.83,3.83,0,0,0,.8.238M81.541,7.63a1.163,1.163,0,0,1-1.316,1.316H76.164q-1.372,0-1.372,1.176a2,2,0,0,0,.644,1.414,1.935,1.935,0,0,0,1.4.658,2.448,2.448,0,0,0,1.708-.784q.812-.784,1.26-.785a1.372,1.372,0,0,1,.882.364,1.052,1.052,0,0,1,.434.812q0,1.149-1.652,2.016a5.944,5.944,0,0,1-2.688.729A4.478,4.478,0,0,1,73,12.783a6.577,6.577,0,0,1-1.2-4.117,7.878,7.878,0,0,1,1.12-4.4,4.76,4.76,0,0,1,6.917-.84,5.482,5.482,0,0,1,1.708,4.2M75.6,6.062q0,1.065,1.6,1.064,1.96,0,1.96-.924a1.4,1.4,0,0,0-.574-1.092,1.849,1.849,0,0,0-1.19-.476,2.009,2.009,0,0,0-1.2.434,1.235,1.235,0,0,0-.588.994M11.335,8.274A3.271,3.271,0,0,0,9.879,5.418a5.558,5.558,0,0,0-3.248-.9,4.724,4.724,0,0,0-3.053.924A3.479,3.479,0,0,0,2.317,8.33,3.482,3.482,0,0,0,3.55,11.187a4.517,4.517,0,0,0,3.024.952,6.5,6.5,0,0,0,1.82-.252A5.842,5.842,0,0,0,10.1,13.679a10.18,10.18,0,0,1-3.585.56,8.125,8.125,0,0,1-4.957-1.428A5.23,5.23,0,0,1-.623,8.33a5.211,5.211,0,0,1,2.24-4.508A8.3,8.3,0,0,1,6.63,2.393a8.6,8.6,0,0,1,5.069,1.4,5.121,5.121,0,0,1,2.269,4.48,5.424,5.424,0,0,1-1.148,3.556,4,4,0,0,1-1.9-1.764,3.954,3.954,0,0,0,.42-1.792" transform="translate(9.556 1.807)" fill="#003960"/>
      </g>
    </g>
  </g>
</svg>
