<svg xmlns="http://www.w3.org/2000/svg" xmlns:xlink="http://www.w3.org/1999/xlink" width="94.674" height="101.417" viewBox="0 0 94.674 101.417">
  <defs>
    <clipPath id="clip-path">
      <path id="Path_23081" data-name="Path 23081" d="M0-230.307H94.674V-331.724H0Z" transform="translate(0 331.724)" fill="none"/>
    </clipPath>
  </defs>
  <g id="Group_7771" data-name="Group 7771" transform="translate(0 331.724)">
    <g id="Group_7778" data-name="Group 7778" transform="translate(0 -331.724)" clip-path="url(#clip-path)">
      <g id="Group_7771-2" data-name="Group 7771" transform="translate(0 20.731)">
        <path id="Path_23074" data-name="Path 23074" d="M-87.953,0s-30.513,7.861-38.659,34.737c-.477,2.84,1.541,6.3,2.8,2.8s3.3-16.014,32.5-35.3C-88.205.391-87.953,0-87.953,0" transform="translate(126.683 0)" fill="#9a9b9f"/>
      </g>
      <g id="Group_7772" data-name="Group 7772" transform="translate(31.242 30.051)">
        <path id="Path_23075" data-name="Path 23075" d="M-1.736-27.182S11.822-41.344,32.44-33.345,58.213-9.253,58.213-9.253s4.08.964,2.241-3.362-8.28-19.746-30.815-25.772C8.405-42.381-2.3-29.423-2.3-29.423s-.726,2.029.56,2.241" transform="translate(2.501 39.152)" fill="#9a9b9f"/>
      </g>
      <g id="Group_7773" data-name="Group 7773" transform="translate(18.65 47.317)">
        <path id="Path_23076" data-name="Path 23076" d="M-9.946-19.892a4.38,4.38,0,0,0,4.38-4.38,4.38,4.38,0,0,0-4.38-4.38,4.38,4.38,0,0,0-4.38,4.38,4.38,4.38,0,0,0,4.38,4.38" transform="translate(14.326 28.651)" fill="#6f7175"/>
      </g>
      <g id="Group_7774" data-name="Group 7774" transform="translate(17.107 43.216)">
        <path id="Path_23077" data-name="Path 23077" d="M-25.932-21.243s3.291-7.982-5.094-5.821c-4.78,1.514-4.914,6.733-2.183,8A15.832,15.832,0,0,0-28.843-17.6s2.8,3.109-5.094.728c-5.163-1.559-3.9-9.2,0-11.643s7.241-3.078,9.46,0,1.045,5.174,0,6.549-1.6,1.935-1.455.728" transform="translate(37.351 30.598)" fill="#9a9b9f"/>
      </g>
      <g id="Group_7775" data-name="Group 7775" transform="translate(40.657 2.199)">
        <path id="Path_23078" data-name="Path 23078" d="M-18.519-.351c-.311.275-8.555,5.672-8.14,7.747s4.842,8.715,4.842,8.715,9.545-8.024,10.1-9.545-5.4-8.162-6.8-6.917" transform="translate(26.674 0.505)" fill="#6f7175"/>
      </g>
      <g id="Group_7776" data-name="Group 7776" transform="translate(38.57 0)">
        <path id="Path_23079" data-name="Path 23079" d="M-24.538,0c-.217-.048-6.912,4.48-7.844,5.042s-.56,2.8-.56,2.8a9.922,9.922,0,0,0-1.681,0,1.694,1.694,0,0,0,0,2.8c1.339,1.225,4.745,7.947,5.043,8.965s2.251,2.871,2.241.56.345-2.472-1.12-4.482-2.357-3.085-2.8-3.922a2.818,2.818,0,0,1,.56-3.922c1.777-1.425,5.643-4.739,6.724-3.922A24.353,24.353,0,0,1-20.056,8.4c.585.991,2.054,2.486,1.12,3.361s-5.6,6.163-5.6,6.163-1.389.882.56.56A9.9,9.9,0,0,0-19.5,16.247c.842-.714,4.387-3.433,4.482-3.922s.636-1.87-1.12-3.922S-22.795,1.184-23.417.56s-.117-.337-1.12-.56" transform="translate(35.343 0.001)" fill="#9a9b9f"/>
      </g>
      <g id="Group_7777" data-name="Group 7777" transform="translate(9.455 91.263)">
        <path id="Path_23080" data-name="Path 23080" d="M0-.7,0,9.147H2.37l0-9.846ZM11.287-.02a3.762,3.762,0,0,0-2.61-.963A3.4,3.4,0,0,0,6.9-.518,2.469,2.469,0,0,0,5.924.525,5.16,5.16,0,0,0,5.7-.7H3.375Q3.518.217,3.53.39q.01.134.01.26l0,6.522H5.923V2.893a2.245,2.245,0,0,1,.658-1.658A1.9,1.9,0,0,1,7.967.612,1.825,1.825,0,0,1,9.319,1.2a2.3,2.3,0,0,1,.634,1.5,3.192,3.192,0,0,1-.538,2.132,2.2,2.2,0,0,1-1.892.955A2.742,2.742,0,0,1,6.7,5.657L7.21,7.173a4.145,4.145,0,0,0,.93.087h.166a3.986,3.986,0,0,0,3.05-1.212A4.487,4.487,0,0,0,12.5,2.854c0-.105-.007-.21-.014-.316a3.661,3.661,0,0,0-1.2-2.558m9.769,0a3.763,3.763,0,0,0-2.61-.963,3.4,3.4,0,0,0-1.776.466A2.469,2.469,0,0,0,15.693.525,5.16,5.16,0,0,0,15.473-.7H13.144q.143.916.155,1.09.01.134.01.26l0,6.522h2.384V2.893a2.245,2.245,0,0,1,.658-1.658A1.9,1.9,0,0,1,17.736.612a1.825,1.825,0,0,1,1.352.584,2.3,2.3,0,0,1,.634,1.5,3.192,3.192,0,0,1-.538,2.132,2.2,2.2,0,0,1-1.892.955,2.742,2.742,0,0,1-.822-.126l.509,1.516a4.145,4.145,0,0,0,.93.087h.166a3.986,3.986,0,0,0,3.05-1.212,4.487,4.487,0,0,0,1.143-3.194q0-.158-.014-.316a3.661,3.661,0,0,0-1.2-2.558m13.4-.174a6.025,6.025,0,0,0-3.231-.813,13.138,13.138,0,0,0-2.346.213,5.931,5.931,0,0,0-1.617.474,3.152,3.152,0,0,1,.5,1.208q.006.079,0,.182V4.812q0,1.042-.9,1.042a1.86,1.86,0,0,1-.8-.213l.274,1.429a2.676,2.676,0,0,0,1.508.339A2.063,2.063,0,0,0,29.628,6.6a2.958,2.958,0,0,0,.521-1.816l0-4.232A4.8,4.8,0,0,1,30.7.517a3.579,3.579,0,0,1,1.9.458A2.093,2.093,0,0,1,33.605,2.72a1.733,1.733,0,0,1,0,.229l0,4.224h2.376l0-4.793q0-.11-.008-.221A2.92,2.92,0,0,0,34.46-.194M42.734-.7l-1.506,2.29L39.149-.7H36.315l5.62,6.293H36.6V7.173h8.227l0-1.532L42.734,3.13,45.182-.7Zm2.93,0,0,7.872h2.369l0-7.872ZM55.995,5.594l0-3.214a2.431,2.431,0,0,0,0-.276A2.938,2.938,0,0,0,54.7-.21a5.1,5.1,0,0,0-2.985-.8,8.182,8.182,0,0,0-2.736.395L48.795.983a4.141,4.141,0,0,1,2-.442,3.251,3.251,0,0,1,1.974.568,2.021,2.021,0,0,1,.843,1.563q.007.095,0,.182l0,2.74h-5.03V7.173h8.472V5.594ZM64.574-.012a6.308,6.308,0,0,0-3.686-.995A6.542,6.542,0,0,0,57.677-.3l-.205,1.579A4.738,4.738,0,0,1,60.1.525a4.314,4.314,0,0,1,2.465.648A2.192,2.192,0,0,1,63.6,2.9a2.681,2.681,0,0,1,0,.347,2.532,2.532,0,0,1-.929,1.84,3.07,3.07,0,0,1-2.035.711h-.047l.688,1.477h.071A5.021,5.021,0,0,0,64.6,6.139a3.913,3.913,0,0,0,1.531-3.064q0-.189-.011-.379A3.447,3.447,0,0,0,64.574-.012M57.679,2.222l0,6.909H60.05l0-6.909ZM74.647-.02a3.762,3.762,0,0,0-2.61-.963,3.4,3.4,0,0,0-1.776.466A2.47,2.47,0,0,0,69.284.525,5.128,5.128,0,0,0,69.064-.7H66.735q.143.916.155,1.09.009.134.01.26l0,6.522h2.385V2.893a2.245,2.245,0,0,1,.658-1.658A1.9,1.9,0,0,1,71.327.612a1.825,1.825,0,0,1,1.352.584,2.3,2.3,0,0,1,.634,1.5,3.192,3.192,0,0,1-.538,2.132,2.2,2.2,0,0,1-1.891.955,2.741,2.741,0,0,1-.822-.126l.509,1.516a4.144,4.144,0,0,0,.93.087h.166a3.987,3.987,0,0,0,3.05-1.212,4.485,4.485,0,0,0,1.143-3.194q0-.158-.014-.316a3.662,3.662,0,0,0-1.2-2.558" transform="translate(0 1.007)" fill="#9a9b9f"/>
      </g>
    </g>
    <g id="Group_7779" data-name="Group 7779" transform="translate(19.912 -264.589)">
      <path id="Path_23082" data-name="Path 23082" d="M0-41.543H4.776V-52.4l4.175,9.056h3.523L16.65-52.4v10.856h4.776V-59.837h-5.82l-4.88,10.152L5.82-59.837H0Zm25.115,0H40.329v-4.176H30.543v-2.9h8.638v-4.175H30.543v-2.871h9.525v-4.175H25.115Zm18.467,0h13.1v-4.541H49.01V-59.837H43.581Z" transform="translate(0 59.837)" fill="#9a9b9f"/>
    </g>
  </g>
</svg>
