<svg xmlns="http://www.w3.org/2000/svg" xmlns:xlink="http://www.w3.org/1999/xlink" width="84.987" height="48.802" viewBox="0 0 84.987 48.802">
  <defs>
    <clipPath id="clip-path">
      <path id="Path_23117" data-name="Path 23117" d="M0-282.922H84.987v-48.8H0Z" transform="translate(0 331.724)" fill="none"/>
    </clipPath>
  </defs>
  <g id="Group_7812" data-name="Group 7812" transform="translate(0 331.724)">
    <g id="Group_7820" data-name="Group 7820" transform="translate(0 -331.724)" clip-path="url(#clip-path)">
      <g id="Group_7812-2" data-name="Group 7812" transform="translate(22.991 43.916)">
        <path id="Path_23109" data-name="Path 23109" d="M0-.859V3.879h1.14V-.859Zm5.431.327A1.81,1.81,0,0,0,4.175-1a1.635,1.635,0,0,0-.854.224,1.188,1.188,0,0,0-.47.5,2.483,2.483,0,0,0-.106-.589H1.624q.069.441.075.524,0,.065.005.125V2.929H2.85V.87a1.08,1.08,0,0,1,.317-.8.912.912,0,0,1,.667-.3.878.878,0,0,1,.65.281,1.108,1.108,0,0,1,.3.722A1.536,1.536,0,0,1,4.53,1.8a1.057,1.057,0,0,1-.91.46,1.319,1.319,0,0,1-.4-.061l.245.729a2,2,0,0,0,.448.042H4a1.918,1.918,0,0,0,1.468-.583A2.159,2.159,0,0,0,6.014.851c0-.051,0-.1-.007-.152A1.762,1.762,0,0,0,5.431-.532m4.7,0A1.811,1.811,0,0,0,8.876-1a1.635,1.635,0,0,0-.854.224,1.188,1.188,0,0,0-.47.5,2.483,2.483,0,0,0-.106-.589H6.325q.069.441.075.524,0,.065.005.125V2.929H7.551V.87a1.08,1.08,0,0,1,.317-.8.912.912,0,0,1,.667-.3.878.878,0,0,1,.65.281,1.108,1.108,0,0,1,.3.722A1.536,1.536,0,0,1,9.231,1.8a1.057,1.057,0,0,1-.91.46,1.319,1.319,0,0,1-.4-.061l.245.729a2,2,0,0,0,.448.042H8.7a1.918,1.918,0,0,0,1.468-.583,2.159,2.159,0,0,0,.55-1.537q0-.076-.007-.152a1.762,1.762,0,0,0-.576-1.231m6.45-.084a2.9,2.9,0,0,0-1.555-.391A6.322,6.322,0,0,0,13.9-.9a2.854,2.854,0,0,0-.778.228,1.517,1.517,0,0,1,.238.581q0,.038,0,.087v1.8q0,.5-.432.5a.9.9,0,0,1-.383-.1l.132.688a1.288,1.288,0,0,0,.726.163.993.993,0,0,0,.854-.391,1.423,1.423,0,0,0,.251-.874l0-2.037a2.309,2.309,0,0,1,.265-.015,1.722,1.722,0,0,1,.916.22,1.007,1.007,0,0,1,.484.84.834.834,0,0,1,0,.11l0,2.033h1.144l0-2.306q0-.053,0-.106a1.405,1.405,0,0,0-.733-1.132m3.982-.243-.725,1.1-1-1.1H17.475l2.7,3.028H17.614v.76h3.959l0-.737L20.564.984,21.742-.859Zm1.41,0V2.929h1.14V-.859Zm4.971,3.028,0-1.546a1.17,1.17,0,0,0,0-.133,1.414,1.414,0,0,0-.617-1.113,2.452,2.452,0,0,0-1.436-.384,3.937,3.937,0,0,0-1.317.19L23.48-.05a1.993,1.993,0,0,1,.962-.213,1.564,1.564,0,0,1,.95.273A.972.972,0,0,1,25.8.764q0,.046,0,.087V2.169h-2.42v.76h4.077v-.76Zm4.128-2.7A3.035,3.035,0,0,0,29.3-1.007a3.148,3.148,0,0,0-1.545.342l-.1.76A2.28,2.28,0,0,1,28.922-.27a2.076,2.076,0,0,1,1.186.312,1.055,1.055,0,0,1,.5.832,1.291,1.291,0,0,1,0,.167,1.219,1.219,0,0,1-.447.885,1.477,1.477,0,0,1-.979.342h-.023l.331.711h.034a2.416,2.416,0,0,0,1.565-.547A1.883,1.883,0,0,0,31.823.957q0-.091-.005-.182a1.659,1.659,0,0,0-.745-1.3M27.756.547V3.872H28.9V.547ZM35.92-.532A1.81,1.81,0,0,0,34.665-1a1.635,1.635,0,0,0-.854.224,1.189,1.189,0,0,0-.47.5,2.468,2.468,0,0,0-.106-.589H32.113q.069.441.075.524,0,.065.005.125V2.929h1.148V.87a1.08,1.08,0,0,1,.316-.8.912.912,0,0,1,.667-.3.878.878,0,0,1,.65.281,1.108,1.108,0,0,1,.305.722A1.536,1.536,0,0,1,35.02,1.8a1.057,1.057,0,0,1-.91.46,1.319,1.319,0,0,1-.4-.061l.245.729a1.994,1.994,0,0,0,.447.042h.08a1.918,1.918,0,0,0,1.468-.583A2.158,2.158,0,0,0,36.5.851Q36.5.775,36.5.7A1.762,1.762,0,0,0,35.92-.532" transform="translate(0 1.007)" fill="#003960"/>
      </g>
      <g id="Group_7813" data-name="Group 7813" transform="translate(13.072 9.976)">
        <path id="Path_23110" data-name="Path 23110" d="M-133.473,0s-18.139,3.783-22.981,16.716c-.283,1.367.916,3.03,1.665,1.348s1.96-7.706,19.317-16.985a9.921,9.921,0,0,0,2-1.078" transform="translate(156.496 0)" fill="#003960"/>
      </g>
      <g id="Group_7814" data-name="Group 7814" transform="translate(32.492 14.461)">
        <path id="Path_23111" data-name="Path 23111" d="M-2.635-33.392s8.06-6.815,20.316-2.966S33-24.764,33-24.764s2.426.464,1.332-1.618-4.922-9.5-18.318-12.4C3.394-40.705-2.968-34.47-2.968-34.47s-.432.976.333,1.078" transform="translate(3.089 39.152)" fill="#003960"/>
      </g>
      <g id="Group_7815" data-name="Group 7815" transform="translate(26.432 22.769)">
        <path id="Path_23112" data-name="Path 23112" d="M-12.218-24.436a2.108,2.108,0,0,0,2.108-2.108,2.107,2.107,0,0,0-2.108-2.107,2.107,2.107,0,0,0-2.108,2.107,2.108,2.108,0,0,0,2.108,2.108" transform="translate(14.326 28.651)" fill="#0081cc"/>
      </g>
      <g id="Group_7816" data-name="Group 7816" transform="translate(25.69 20.796)">
        <path id="Path_23113" data-name="Path 23113" d="M-31.856-26.1s1.584-3.841-2.451-2.8c-2.3.729-2.365,3.24-1.051,3.852a7.618,7.618,0,0,0,2.1.7s1.345,1.5-2.451.35c-2.485-.75-1.876-4.426,0-5.6s3.484-1.481,4.552,0a2.343,2.343,0,0,1,0,3.152c-.5.662-.77.931-.7.35" transform="translate(37.351 30.598)" fill="#003960"/>
      </g>
      <g id="Group_7817" data-name="Group 7817" transform="translate(37.022 1.058)">
        <path id="Path_23114" data-name="Path 23114" d="M-22.749-.431C-22.9-.3-26.866,2.3-26.666,3.3a24.211,24.211,0,0,0,2.33,4.194s4.593-3.861,4.86-4.593-2.6-3.928-3.273-3.329" transform="translate(26.674 0.505)" fill="#c00"/>
      </g>
      <g id="Group_7818" data-name="Group 7818" transform="translate(36.018 0)">
        <path id="Path_23115" data-name="Path 23115" d="M-30.144,0c-.1-.023-3.326,2.156-3.774,2.426s-.27,1.348-.27,1.348a4.775,4.775,0,0,0-.809,0,.815.815,0,0,0,0,1.348A21.074,21.074,0,0,1-32.57,9.435c.143.489,1.083,1.381,1.078.27s.166-1.189-.539-2.157-1.134-1.485-1.348-1.887a1.356,1.356,0,0,1,.27-1.887c.855-.686,2.716-2.28,3.235-1.887a11.719,11.719,0,0,1,1.887,2.157c.281.477.988,1.2.539,1.618s-2.7,2.966-2.7,2.966-.668.424.27.27a4.766,4.766,0,0,0,2.157-1.079A17.558,17.558,0,0,0-25.56,5.93,1.863,1.863,0,0,0-26.1,4.043C-26.945,3.056-29.3.569-29.6.269s-.056-.162-.539-.27" transform="translate(35.343 0.001)" fill="#003960"/>
      </g>
      <g id="Group_7819" data-name="Group 7819" transform="translate(0 32.732)">
        <path id="Path_23116" data-name="Path 23116" d="M0-1.733.068,7.825h2.07L2.07-1.733Zm8.285,0L8.31,2.076Q8.329,4.33,6.529,4.33L4.849-1.733H2.663L4.442,4.376h-1.6l.011,1.533H7.088a3.1,3.1,0,0,0,2.5-1.1,4.1,4.1,0,0,0,.872-2.729L10.43-1.733Zm9.508.713a3.128,3.128,0,0,0-2.175-.812,2.189,2.189,0,0,0-.765.207L14.24-.238a2.207,2.207,0,0,1,.736-.13A1.5,1.5,0,0,1,16.112.1,2.415,2.415,0,0,1,16.7,1.662q.01.146.014.3a3.068,3.068,0,0,1-.5,1.863,1.4,1.4,0,0,1-1.163.628,1.5,1.5,0,0,1-1.168-.529,2.306,2.306,0,0,1-.534-1.418q-.008-.107-.008-.215l-.026-4.024H11.231l.028,3.756q0,.222.016.429A3.893,3.893,0,0,0,12.557,5.3a4.061,4.061,0,0,0,2.717.882A3.354,3.354,0,0,0,17.9,5a4.341,4.341,0,0,0,1.024-3.012l0-.138q0-.176-.011-.353A3.569,3.569,0,0,0,17.793-1.02m8.619-.054a3.124,3.124,0,0,0-2.287-.935,2.728,2.728,0,0,0-1.548.452A2.3,2.3,0,0,0,21.73-.545a5.505,5.505,0,0,0-.2-1.188H19.495q.131.889.143,1.058.009.13.011.253l.043,6.331h2.083l-.028-4.154A2.3,2.3,0,0,1,22.31.145a1.574,1.574,0,0,1,1.206-.605A1.535,1.535,0,0,1,24.7.107a2.379,2.379,0,0,1,.564,1.456,3.35,3.35,0,0,1-.455,2.07,1.851,1.851,0,0,1-1.646.927,2.179,2.179,0,0,1-.719-.123L22.9,5.909a3.288,3.288,0,0,0,.813.084h.145a3.288,3.288,0,0,0,2.656-1.176,4.623,4.623,0,0,0,.977-3.1q0-.153-.015-.307a3.753,3.753,0,0,0-1.064-2.483m4.942-.659.033,4.714.116.077,1.95-1.219-.029-3.572Zm8.638.6a4.7,4.7,0,0,0-2.9-.9,6.518,6.518,0,0,0-2.781.575l.025,4h3l-.012-1.456h-.931L36.375-.568a2.285,2.285,0,0,1,.459-.046,2.315,2.315,0,0,1,1.557.559,2.4,2.4,0,0,1,.825,1.74,2.772,2.772,0,0,1-.676,2.169,2.492,2.492,0,0,1-1.95.82,4.406,4.406,0,0,1-2.059-.636L34.7,5.625a7.835,7.835,0,0,0,2.784.552,3.8,3.8,0,0,0,2.823-1.165,4.14,4.14,0,0,0,1.166-3.051q0-.161-.008-.314a3.606,3.606,0,0,0-1.478-2.782m2.134-.6.051,7.642h2.069L44.2-1.733Zm9.595.613a4.219,4.219,0,0,0-2.725-.9,4.123,4.123,0,0,0-2.822.981A3.838,3.838,0,0,0,44.92,2.053q.006.192.019.376a3.924,3.924,0,0,0,1.375,2.9,4.17,4.17,0,0,0,2.733.912,4.052,4.052,0,0,0,2.827-1,4.012,4.012,0,0,0,1.247-3.181q0-.176-.01-.345A3.779,3.779,0,0,0,51.72-1.12M51,2.046a2.646,2.646,0,0,1-.6,1.824,1.767,1.767,0,0,1-1.371.613,1.79,1.79,0,0,1-1.315-.552,2.515,2.515,0,0,1-.667-1.648q-.008-.115-.01-.238a2.532,2.532,0,0,1,.6-1.817,1.768,1.768,0,0,1,1.366-.59A1.808,1.808,0,0,1,50.32.168,2.438,2.438,0,0,1,50.993,1.8q.008.115.01.245m9.564-3.119a3.124,3.124,0,0,0-2.287-.935,2.728,2.728,0,0,0-1.548.452,2.3,2.3,0,0,0-.847,1.012,5.505,5.505,0,0,0-.2-1.188H53.65q.131.889.143,1.058.009.13.011.253l.043,6.331H55.93L55.9,1.754a2.3,2.3,0,0,1,.564-1.61,1.574,1.574,0,0,1,1.206-.605,1.535,1.535,0,0,1,1.185.567,2.379,2.379,0,0,1,.564,1.456,3.35,3.35,0,0,1-.455,2.07,1.851,1.851,0,0,1-1.646.927,2.179,2.179,0,0,1-.719-.123l.455,1.472a3.288,3.288,0,0,0,.813.084h.145a3.288,3.288,0,0,0,2.656-1.176,4.623,4.623,0,0,0,.977-3.1q0-.153-.014-.307a3.753,3.753,0,0,0-1.064-2.483m4.942-.659.068,9.558h2.07l-.068-9.558Zm9.865.659a3.124,3.124,0,0,0-2.287-.935,2.728,2.728,0,0,0-1.548.452,2.3,2.3,0,0,0-.847,1.012,5.505,5.505,0,0,0-.2-1.188H68.457q.131.889.143,1.058.009.13.011.253l.043,6.331h2.083l-.028-4.154a2.3,2.3,0,0,1,.563-1.61,1.574,1.574,0,0,1,1.206-.605,1.536,1.536,0,0,1,1.185.567,2.379,2.379,0,0,1,.564,1.456,3.351,3.351,0,0,1-.455,2.07,1.852,1.852,0,0,1-1.646.927,2.178,2.178,0,0,1-.719-.123l.455,1.472a3.288,3.288,0,0,0,.813.084h.145a3.289,3.289,0,0,0,2.657-1.176,4.623,4.623,0,0,0,.977-3.1q0-.153-.015-.307a3.753,3.753,0,0,0-1.064-2.483m8.535,0a3.123,3.123,0,0,0-2.286-.935,2.728,2.728,0,0,0-1.548.452,2.3,2.3,0,0,0-.847,1.012,5.508,5.508,0,0,0-.2-1.188H76.992q.131.889.143,1.058.009.13.011.253l.043,6.331h2.083l-.028-4.154a2.3,2.3,0,0,1,.563-1.61,1.574,1.574,0,0,1,1.206-.605A1.535,1.535,0,0,1,82.2.107a2.379,2.379,0,0,1,.564,1.456,3.35,3.35,0,0,1-.455,2.07,1.851,1.851,0,0,1-1.646.927,2.179,2.179,0,0,1-.719-.123L80.4,5.909a3.29,3.29,0,0,0,.813.084h.145a3.288,3.288,0,0,0,2.656-1.176,4.623,4.623,0,0,0,.977-3.1q0-.153-.014-.307a3.753,3.753,0,0,0-1.064-2.483" transform="translate(0 2.032)" fill="#003960"/>
      </g>
    </g>
  </g>
</svg>
