<svg xmlns="http://www.w3.org/2000/svg" xmlns:xlink="http://www.w3.org/1999/xlink" width="45.687" height="48.941" viewBox="0 0 45.687 48.941">
  <defs>
    <clipPath id="clip-path">
      <path id="Path_23100" data-name="Path 23100" d="M0-282.783H45.687v-48.941H0Z" transform="translate(0 331.724)" fill="none"/>
    </clipPath>
  </defs>
  <g id="Group_7798" data-name="Group 7798" transform="translate(0 331.724)">
    <g id="Group_7797" data-name="Group 7797" transform="translate(0 -331.724)" clip-path="url(#clip-path)">
      <g id="Group_7789" data-name="Group 7789" transform="translate(5.423 44.04)">
        <path id="Path_23092" data-name="Path 23092" d="M0-.858V3.893H1.144V-.858Zm5.447.328A1.816,1.816,0,0,0,4.187-1a1.64,1.64,0,0,0-.857.225,1.192,1.192,0,0,0-.472.5,2.49,2.49,0,0,0-.106-.591H1.629q.069.442.075.526,0,.065.005.126V2.94H2.858V.875a1.083,1.083,0,0,1,.317-.8.914.914,0,0,1,.669-.3A.881.881,0,0,1,4.5.056,1.111,1.111,0,0,1,4.8.78a1.54,1.54,0,0,1-.26,1.029,1.06,1.06,0,0,1-.913.461,1.323,1.323,0,0,1-.4-.061l.245.731a2,2,0,0,0,.449.042h.08A1.924,1.924,0,0,0,5.48,2.4,2.165,2.165,0,0,0,6.031.856c0-.051,0-.1-.007-.152A1.767,1.767,0,0,0,5.447-.531m4.714,0A1.816,1.816,0,0,0,8.9-1a1.64,1.64,0,0,0-.857.225,1.192,1.192,0,0,0-.472.5,2.49,2.49,0,0,0-.106-.591H6.343q.069.442.075.526,0,.065.005.126V2.94H7.572V.875a1.083,1.083,0,0,1,.317-.8.914.914,0,0,1,.669-.3.881.881,0,0,1,.652.282A1.111,1.111,0,0,1,9.517.78a1.541,1.541,0,0,1-.26,1.029,1.06,1.06,0,0,1-.913.461,1.323,1.323,0,0,1-.4-.061l.245.731a2,2,0,0,0,.449.042h.08A1.924,1.924,0,0,0,10.194,2.4,2.165,2.165,0,0,0,10.746.856q0-.076-.007-.152a1.767,1.767,0,0,0-.578-1.235m6.468-.084a2.908,2.908,0,0,0-1.559-.392,6.34,6.34,0,0,0-1.132.1,2.862,2.862,0,0,0-.78.229,1.521,1.521,0,0,1,.239.583q0,.038,0,.088V1.8q0,.5-.433.5a.9.9,0,0,1-.384-.1l.132.69a1.291,1.291,0,0,0,.728.164,1,1,0,0,0,.857-.392,1.427,1.427,0,0,0,.251-.876l0-2.042a2.316,2.316,0,0,1,.266-.015,1.727,1.727,0,0,1,.919.221,1.01,1.01,0,0,1,.486.842.836.836,0,0,1,0,.111l0,2.038h1.147l0-2.313q0-.053,0-.107a1.409,1.409,0,0,0-.735-1.135m3.993-.244L19.9.247l-1-1.105H17.524l2.712,3.037H17.664V2.94h3.97l0-.739L20.622.99,21.8-.858Zm1.414,0v3.8h1.143v-3.8Zm4.985,3.037,0-1.551a1.173,1.173,0,0,0,0-.133A1.418,1.418,0,0,0,26.4-.622a2.459,2.459,0,0,0-1.441-.385,3.948,3.948,0,0,0-1.32.19l-.091.77a2,2,0,0,1,.964-.213,1.569,1.569,0,0,1,.953.274.975.975,0,0,1,.407.754q0,.046,0,.088V2.178H23.447V2.94h4.088V2.178Zm4.14-2.705a3.044,3.044,0,0,0-1.779-.48,3.157,3.157,0,0,0-1.55.343l-.1.762A2.286,2.286,0,0,1,29-.268a2.082,2.082,0,0,1,1.19.312,1.058,1.058,0,0,1,.5.834,1.294,1.294,0,0,1,0,.168,1.222,1.222,0,0,1-.449.888,1.482,1.482,0,0,1-.982.343h-.023l.332.713h.034a2.423,2.423,0,0,0,1.57-.549A1.888,1.888,0,0,0,31.913.963q0-.091-.005-.183a1.663,1.663,0,0,0-.747-1.307M27.834.551V3.885h1.143V.551ZM36.022-.531A1.815,1.815,0,0,0,34.763-1a1.639,1.639,0,0,0-.857.225,1.192,1.192,0,0,0-.472.5,2.475,2.475,0,0,0-.106-.591H32.2q.069.442.075.526,0,.065.005.126V2.94h1.151V.875a1.083,1.083,0,0,1,.317-.8.914.914,0,0,1,.669-.3.881.881,0,0,1,.652.282,1.111,1.111,0,0,1,.306.724,1.54,1.54,0,0,1-.26,1.029,1.06,1.06,0,0,1-.913.461,1.323,1.323,0,0,1-.4-.061l.246.731a2,2,0,0,0,.449.042h.08A1.924,1.924,0,0,0,36.055,2.4,2.164,2.164,0,0,0,36.607.856Q36.605.78,36.6.7a1.767,1.767,0,0,0-.578-1.235" transform="translate(0 1.007)" fill="#003960"/>
      </g>
      <g id="Group_7790" data-name="Group 7790" transform="translate(0 10.004)">
        <path id="Path_23093" data-name="Path 23093" d="M-107.993,0s-14.725,3.794-18.656,16.763c-.23,1.37.744,3.039,1.352,1.352s1.591-7.728,15.681-17.033A7.84,7.84,0,0,0-107.993,0" transform="translate(126.683)" fill="#003960"/>
      </g>
      <g id="Group_7791" data-name="Group 7791" transform="translate(15.077 14.502)">
        <path id="Path_23094" data-name="Path 23094" d="M-2.132-33.375A15.454,15.454,0,0,1,14.36-36.35C24.31-32.489,26.8-24.724,26.8-24.724s1.969.465,1.081-1.622-4-9.529-14.87-12.437C2.762-40.71-2.4-34.457-2.4-34.457s-.351.979.27,1.081" transform="translate(2.501 39.152)" fill="#003960"/>
      </g>
      <g id="Group_7792" data-name="Group 7792" transform="translate(9 22.834)">
        <path id="Path_23095" data-name="Path 23095" d="M-12.212-24.424A2.114,2.114,0,0,0-10.1-26.538a2.113,2.113,0,0,0-2.114-2.113,2.113,2.113,0,0,0-2.114,2.113,2.114,2.114,0,0,0,2.114,2.114" transform="translate(14.326 28.651)" fill="#0081cc"/>
      </g>
      <g id="Group_7793" data-name="Group 7793" transform="translate(8.255 20.855)">
        <path id="Path_23096" data-name="Path 23096" d="M-31.84-26.084s1.588-3.852-2.458-2.809c-2.307.731-2.371,3.249-1.054,3.863a7.64,7.64,0,0,0,2.107.7s1.349,1.5-2.458.351c-2.492-.752-1.881-4.439,0-5.619s3.494-1.485,4.565,0a2.349,2.349,0,0,1,0,3.16c-.5.664-.772.934-.7.351" transform="translate(37.351 30.598)" fill="#003960"/>
      </g>
      <g id="Group_7794" data-name="Group 7794" transform="translate(19.62 1.061)">
        <path id="Path_23097" data-name="Path 23097" d="M-22.738-.431c-.15.133-4.128,2.737-3.928,3.739A24.28,24.28,0,0,0-24.33,7.513s4.606-3.872,4.873-4.606-2.6-3.939-3.282-3.338" transform="translate(26.674 0.505)" fill="#c00"/>
      </g>
      <g id="Group_7795" data-name="Group 7795" transform="translate(18.613 0)">
        <path id="Path_23098" data-name="Path 23098" d="M-30.129,0c-.1-.023-3.335,2.162-3.785,2.433s-.27,1.352-.27,1.352a4.788,4.788,0,0,0-.811,0,.817.817,0,0,0,0,1.352,21.134,21.134,0,0,1,2.433,4.326c.144.491,1.086,1.385,1.081.27s.167-1.193-.541-2.163-1.137-1.489-1.352-1.893a1.36,1.36,0,0,1,.27-1.893c.858-.688,2.723-2.287,3.245-1.893a11.752,11.752,0,0,1,1.893,2.163c.282.478.991,1.2.541,1.622s-2.7,2.974-2.7,2.974-.67.426.27.27A4.779,4.779,0,0,0-27.7,7.84a17.608,17.608,0,0,0,2.163-1.893,1.868,1.868,0,0,0-.541-1.893c-.848-.99-3.214-3.484-3.515-3.785s-.056-.163-.541-.27" transform="translate(35.343 0.001)" fill="#003960"/>
      </g>
      <g id="Group_7796" data-name="Group 7796" transform="translate(5.587 32.854)">
        <path id="Path_23099" data-name="Path 23099" d="M-35.238-4.624a5.336,5.336,0,0,0-3.045-.8,6.618,6.618,0,0,0-2.85.533l-.2,1.569A4.171,4.171,0,0,1-39.2-3.886a3.754,3.754,0,0,1,2.027.486,1.956,1.956,0,0,1,.928,1.608q.007.1.006.2l0,4.291h2.361l0-4.762c0-.084,0-.167-.01-.251a2.9,2.9,0,0,0-1.354-2.314m4.117,5.66a1.112,1.112,0,0,0-.8-.349.968.968,0,0,0-.76.349,1.132,1.132,0,0,0-.269.859,1.3,1.3,0,0,0,.39.867,1.121,1.121,0,0,0,.809.349A.96.96,0,0,0-31,2.762a1.141,1.141,0,0,0,.269-.867,1.294,1.294,0,0,0-.39-.859m9.363-5.652a5.986,5.986,0,0,0-3.21-.808,13.059,13.059,0,0,0-2.331.212,5.9,5.9,0,0,0-1.607.471,3.131,3.131,0,0,1,.492,1.2q.006.079,0,.18V.358q0,1.035-.892,1.036a1.849,1.849,0,0,1-.792-.212l.272,1.42a2.657,2.657,0,0,0,1.5.337,2.05,2.05,0,0,0,1.763-.808,2.936,2.936,0,0,0,.517-1.8l0-4.2A4.8,4.8,0,0,1-25.5-3.91a3.554,3.554,0,0,1,1.891.455,2.079,2.079,0,0,1,1,1.734,1.72,1.72,0,0,1,0,.227l0,4.2h2.361l0-4.762q0-.11-.008-.22a2.9,2.9,0,0,0-1.513-2.338m4.272,5.652a1.112,1.112,0,0,0-.8-.349.968.968,0,0,0-.76.349,1.132,1.132,0,0,0-.269.859,1.3,1.3,0,0,0,.39.867,1.121,1.121,0,0,0,.809.349.96.96,0,0,0,.752-.349A1.141,1.141,0,0,0-17.1,1.9a1.294,1.294,0,0,0-.39-.859m9.153-5.48A3.737,3.737,0,0,0-10.927-5.4a3.377,3.377,0,0,0-1.764.463A2.455,2.455,0,0,0-13.662-3.9a5.1,5.1,0,0,0-.218-1.216h-2.314q.142.91.154,1.083.009.133.01.259l0,6.48h2.369V-1.549A2.232,2.232,0,0,1-13.008-3.2a1.883,1.883,0,0,1,1.377-.62,1.813,1.813,0,0,1,1.343.581,2.287,2.287,0,0,1,.63,1.49A3.173,3.173,0,0,1-10.194.373a2.182,2.182,0,0,1-1.879.949,2.715,2.715,0,0,1-.817-.126l.505,1.506a4.127,4.127,0,0,0,.924.086h.165a3.961,3.961,0,0,0,3.03-1.2A4.457,4.457,0,0,0-7.13-1.588q0-.157-.014-.314a3.637,3.637,0,0,0-1.19-2.542" transform="translate(41.336 5.424)" fill="#003960"/>
      </g>
    </g>
  </g>
</svg>
