<svg xmlns="http://www.w3.org/2000/svg" xmlns:xlink="http://www.w3.org/1999/xlink" width="147.371" height="94.797" viewBox="0 0 147.371 94.797">
  <defs>
    <clipPath id="clip-path">
      <path id="Path_23063" data-name="Path 23063" d="M0-307.546H147.371v-94.8H0Z" transform="translate(0 402.343)" fill="none"/>
    </clipPath>
  </defs>
  <g id="Group_7759" data-name="Group 7759" transform="translate(0 402.343)">
    <g id="Group_7758" data-name="Group 7758" transform="translate(0 -402.343)" clip-path="url(#clip-path)">
      <g id="Group_7751" data-name="Group 7751" transform="translate(0 72.169)">
        <path id="Path_23056" data-name="Path 23056" d="M0-2.227,0,19.715H5.282l0-21.942ZM25.151-.714A8.382,8.382,0,0,0,19.335-2.86a7.572,7.572,0,0,0-3.957,1.038A5.505,5.505,0,0,0,13.2.5a11.453,11.453,0,0,0-.49-2.727H7.52Q7.839-.185,7.866.2q.021.3.023.581l0,14.534H13.2l0-9.537a5,5,0,0,1,1.466-3.695A4.221,4.221,0,0,1,17.754.694,4.067,4.067,0,0,1,20.766,2a5.13,5.13,0,0,1,1.413,3.343,7.116,7.116,0,0,1-1.2,4.751,4.9,4.9,0,0,1-4.215,2.129,6.1,6.1,0,0,1-1.832-.282l1.134,3.378a9.267,9.267,0,0,0,2.072.193h.369a8.883,8.883,0,0,0,6.8-2.7,10,10,0,0,0,2.546-7.117q-.007-.352-.032-.7a8.159,8.159,0,0,0-2.669-5.7m21.77,0A8.382,8.382,0,0,0,41.105-2.86a7.571,7.571,0,0,0-3.957,1.038A5.506,5.506,0,0,0,34.971.5a11.441,11.441,0,0,0-.49-2.727H29.29Q29.609-.185,29.636.2c.014.2.021.393.023.581l0,14.534h5.314l0-9.537a5,5,0,0,1,1.466-3.695A4.221,4.221,0,0,1,39.524.694,4.066,4.066,0,0,1,42.536,2a5.129,5.129,0,0,1,1.413,3.343,7.116,7.116,0,0,1-1.2,4.751,4.9,4.9,0,0,1-4.215,2.129,6.094,6.094,0,0,1-1.832-.282l1.134,3.378a9.269,9.269,0,0,0,2.072.193h.369a8.884,8.884,0,0,0,6.8-2.7,10,10,0,0,0,2.546-7.117q-.007-.352-.032-.7a8.159,8.159,0,0,0-2.669-5.7M76.79-1.1a13.422,13.422,0,0,0-7.2-1.813,29.29,29.29,0,0,0-5.228.475,13.209,13.209,0,0,0-3.6,1.056,7.022,7.022,0,0,1,1.1,2.692c.008.117.012.252.011.4l0,8.34q0,2.323-2,2.323A4.147,4.147,0,0,1,58.1,11.9l.61,3.185a5.962,5.962,0,0,0,3.361.757,4.6,4.6,0,0,0,3.955-1.812,6.589,6.589,0,0,0,1.16-4.047L67.175.553A10.767,10.767,0,0,1,68.4.483,7.972,7.972,0,0,1,72.644,1.5a4.663,4.663,0,0,1,2.243,3.889,3.844,3.844,0,0,1,0,.51l.007,9.414h5.3l.01-10.68q0-.246-.017-.493A6.508,6.508,0,0,0,76.79-1.1M95.229-2.227l-3.356,5.1-4.633-5.1H80.924L93.447,11.8H81.57v3.519H99.9l-.01-3.414-4.667-5.6,5.456-8.534Zm6.529,0,0,17.543h5.279l0-17.543ZM124.779,11.8l-.008-7.161a5.56,5.56,0,0,0-.008-.616A6.547,6.547,0,0,0,121.9-1.136a11.355,11.355,0,0,0-6.652-1.777,18.244,18.244,0,0,0-6.1.88l-.42,3.554a9.225,9.225,0,0,1,4.453-.985,7.24,7.24,0,0,1,4.4,1.267,4.5,4.5,0,0,1,1.88,3.484q.015.211.011.4l0,6.106H108.275v3.519h18.88V11.8ZM143.9-.7a14.061,14.061,0,0,0-8.214-2.217,14.573,14.573,0,0,0-7.156,1.584L128.07,2.19A10.557,10.557,0,0,1,133.934.5a9.617,9.617,0,0,1,5.494,1.443,4.886,4.886,0,0,1,2.3,3.853,5.964,5.964,0,0,1,0,.774,5.64,5.64,0,0,1-2.071,4.1,6.842,6.842,0,0,1-4.534,1.584h-.106l1.532,3.29h.158a11.188,11.188,0,0,0,7.248-2.534,8.72,8.72,0,0,0,3.411-6.827q.005-.422-.024-.845A7.682,7.682,0,0,0,143.9-.7M128.533,4.284l0,15.4h5.279l0-15.4Z" transform="translate(0 2.913)" fill="#003960"/>
      </g>
      <g id="Group_7752" data-name="Group 7752" transform="translate(22.188 22.314)">
        <path id="Path_23057" data-name="Path 23057" d="M-135.25,0s-32.844,8.462-41.612,37.39c-.513,3.057,1.659,6.779,3.015,3.015s3.55-17.237,34.978-37.994C-135.522.421-135.25,0-135.25,0" transform="translate(176.939 0)" fill="#003960"/>
      </g>
      <g id="Group_7753" data-name="Group 7753" transform="translate(55.817 32.347)">
        <path id="Path_23058" data-name="Path 23058" d="M-2.67-41.8s14.594-15.244,36.787-6.634S61.859-22.5,61.859-22.5s4.392,1.037,2.412-3.618S55.359-47.373,31.1-53.861c-22.856-4.3-34.375,9.649-34.375,9.649s-.782,2.184.6,2.412" transform="translate(3.493 54.683)" fill="#003960"/>
      </g>
      <g id="Group_7754" data-name="Group 7754" transform="translate(42.262 50.931)">
        <path id="Path_23059" data-name="Path 23059" d="M-15.295-30.589A4.714,4.714,0,0,0-10.58-35.3a4.714,4.714,0,0,0-4.714-4.714A4.714,4.714,0,0,0-20.009-35.3a4.714,4.714,0,0,0,4.714,4.714" transform="translate(20.009 40.018)" fill="#0081cc"/>
      </g>
      <g id="Group_7755" data-name="Group 7755" transform="translate(40.601 46.517)">
        <path id="Path_23060" data-name="Path 23060" d="M-39.877-32.667s3.543-8.592-5.483-6.266c-5.145,1.63-5.289,7.248-2.35,8.616a17.037,17.037,0,0,0,4.7,1.567s3.009,3.347-5.483.783c-5.558-1.678-4.2-9.9,0-12.532s7.794-3.313,10.183,0,1.124,5.569,0,7.049-1.723,2.082-1.567.783" transform="translate(52.169 42.736)" fill="#003960"/>
      </g>
      <g id="Group_7756" data-name="Group 7756" transform="translate(65.95 2.367)">
        <path id="Path_23061" data-name="Path 23061" d="M-28.477-.54c-.334.3-9.208,6.105-8.761,8.339s5.212,9.381,5.212,9.381,10.275-8.637,10.87-10.275S-26.964-1.88-28.477-.54" transform="translate(37.255 0.706)" fill="#c00"/>
      </g>
      <g id="Group_7757" data-name="Group 7757" transform="translate(63.704 0)">
        <path id="Path_23062" data-name="Path 23062" d="M-37.734,0c-.233-.052-7.44,4.822-8.443,5.428s-.6,3.015-.6,3.015a10.691,10.691,0,0,0-1.809,0c-.531.1-1.441,1.7,0,3.015s5.107,8.554,5.428,9.649,2.423,3.09,2.412.6.372-2.661-1.206-4.825-2.537-3.321-3.015-4.221-1.31-2.688.6-4.222,6.075-5.1,7.237-4.221a26.2,26.2,0,0,1,4.221,4.825c.629,1.067,2.211,2.677,1.206,3.619S-37.734,19.3-37.734,19.3s-1.494.949.6.6a10.66,10.66,0,0,0,4.824-2.412c.906-.769,4.723-3.7,4.825-4.221s.685-2.013-1.206-4.221S-35.858,1.274-36.528.6s-.126-.363-1.206-.6" transform="translate(49.365 0.002)" fill="#003960"/>
      </g>
    </g>
  </g>
</svg>
