<svg xmlns="http://www.w3.org/2000/svg" xmlns:xlink="http://www.w3.org/1999/xlink" width="191.94" height="123.466" viewBox="0 0 191.94 123.466">
  <defs>
    <clipPath id="clip-path">
      <path id="Path_23063" data-name="Path 23063" d="M0-278.877H191.94V-402.343H0Z" transform="translate(0 402.343)" fill="#fff"/>
    </clipPath>
  </defs>
  <g id="Group_7821" data-name="Group 7821" transform="translate(0 402.343)">
    <g id="Group_7758" data-name="Group 7758" transform="translate(0 -402.343)" clip-path="url(#clip-path)">
      <g id="Group_7751" data-name="Group 7751" transform="translate(0 93.995)">
        <path id="Path_23056" data-name="Path 23056" d="M0-2.019,0,26.558H6.88l0-28.577ZM32.758-.048a10.917,10.917,0,0,0-7.575-2.8A9.862,9.862,0,0,0,20.03-1.492a7.17,7.17,0,0,0-2.836,3.025,14.916,14.916,0,0,0-.638-3.552H9.795q.415,2.659.45,3.163.027.39.03.756L10.27,20.829h6.921l0-12.421A6.517,6.517,0,0,1,19.1,3.6a5.5,5.5,0,0,1,4.021-1.811,5.3,5.3,0,0,1,3.923,1.7,6.681,6.681,0,0,1,1.84,4.354,9.268,9.268,0,0,1-1.561,6.188A6.376,6.376,0,0,1,21.836,16.8a7.938,7.938,0,0,1-2.386-.367l1.477,4.4a12.07,12.07,0,0,0,2.7.252h.481a11.569,11.569,0,0,0,8.852-3.518,13.021,13.021,0,0,0,3.316-9.27q-.009-.458-.041-.917A10.626,10.626,0,0,0,32.758-.048m28.354,0a10.917,10.917,0,0,0-7.575-2.8,9.861,9.861,0,0,0-5.153,1.352,7.171,7.171,0,0,0-2.837,3.025,14.9,14.9,0,0,0-.638-3.552h-6.76q.415,2.659.45,3.163c.018.26.028.512.03.756l-.006,18.929h6.921l0-12.421A6.517,6.517,0,0,1,47.456,3.6a5.5,5.5,0,0,1,4.021-1.811,5.3,5.3,0,0,1,3.923,1.7,6.68,6.68,0,0,1,1.84,4.354,9.268,9.268,0,0,1-1.561,6.188,6.376,6.376,0,0,1-5.49,2.773,7.936,7.936,0,0,1-2.386-.367l1.476,4.4a12.072,12.072,0,0,0,2.7.252h.481a11.571,11.571,0,0,0,8.852-3.518,13.021,13.021,0,0,0,3.316-9.27q-.01-.458-.041-.917A10.626,10.626,0,0,0,61.111-.048m38.9-.5a17.482,17.482,0,0,0-9.378-2.361,38.149,38.149,0,0,0-6.809.619A17.2,17.2,0,0,0,79.134-.919a9.146,9.146,0,0,1,1.437,3.506c.011.153.015.329.014.527l0,10.862Q80.593,17,77.981,17a5.4,5.4,0,0,1-2.312-.619l.794,4.148a7.764,7.764,0,0,0,4.377.985,5.989,5.989,0,0,0,5.152-2.36A8.582,8.582,0,0,0,87.5,13.885L87.491,1.6a14.023,14.023,0,0,1,1.6-.091,10.383,10.383,0,0,1,5.524,1.329A6.073,6.073,0,0,1,97.534,7.9a5.006,5.006,0,0,1,0,.665l.01,12.261h6.9l.013-13.911q0-.321-.022-.642a8.476,8.476,0,0,0-4.419-6.829m24.015-1.467-4.371,6.646-6.034-6.646H105.4l16.311,18.265H106.24v4.583h23.88l-.013-4.446L124.027,9.1l7.106-11.115Zm8.5,0-.006,22.848H139.4l.006-22.848Zm29.983,18.265-.011-9.327a7.242,7.242,0,0,0-.01-.8A8.527,8.527,0,0,0,158.771-.6a14.79,14.79,0,0,0-8.664-2.315,23.761,23.761,0,0,0-7.941,1.146l-.547,4.629a12.015,12.015,0,0,1,5.8-1.283,9.43,9.43,0,0,1,5.73,1.65A5.865,5.865,0,0,1,155.6,7.766q.019.275.014.527l.006,7.952h-14.6v4.583h24.59V16.246Zm24.9-16.271q-4.144-2.887-10.7-2.888A18.981,18.981,0,0,0,167.4-.85l-.6,4.583a13.75,13.75,0,0,1,7.638-2.2A12.525,12.525,0,0,1,181.6,3.412a6.364,6.364,0,0,1,3,5.019,7.769,7.769,0,0,1,0,1.008,7.346,7.346,0,0,1-2.7,5.339,8.911,8.911,0,0,1-5.906,2.062h-.137l2,4.285h.206a14.572,14.572,0,0,0,9.44-3.3,11.357,11.357,0,0,0,4.443-8.892q.007-.55-.031-1.1a10,10,0,0,0-4.491-7.86M167.406,6.46l0,20.052h6.875l0-20.052Z" transform="translate(0 2.913)" fill="#fff"/>
      </g>
      <g id="Group_7752" data-name="Group 7752" transform="translate(28.898 29.062)">
        <path id="Path_23057" data-name="Path 23057" d="M-122.642,0s-42.777,11.021-54.2,48.7c-.669,3.982,2.161,8.829,3.927,3.927s4.623-22.45,45.556-49.484C-123,.548-122.642,0-122.642,0" transform="translate(176.939 0)" fill="#fff"/>
      </g>
      <g id="Group_7753" data-name="Group 7753" transform="translate(72.698 42.129)">
        <path id="Path_23058" data-name="Path 23058" d="M-2.421-37.9s19.007-19.855,47.913-8.64S81.623-12.768,81.623-12.768s5.721,1.351,3.142-4.713-11.608-27.682-43.2-36.131C11.8-59.21-3.207-41.044-3.207-41.044S-4.225-38.2-2.421-37.9" transform="translate(3.493 54.683)" fill="#fff"/>
      </g>
      <g id="Group_7754" data-name="Group 7754" transform="translate(55.044 66.335)">
        <path id="Path_23059" data-name="Path 23059" d="M-13.869-27.738a6.14,6.14,0,0,0,6.14-6.14,6.14,6.14,0,0,0-6.14-6.14,6.14,6.14,0,0,0-6.14,6.14,6.14,6.14,0,0,0,6.14,6.14" transform="translate(20.009 40.018)" fill="#fff"/>
      </g>
      <g id="Group_7755" data-name="Group 7755" transform="translate(52.881 60.586)">
        <path id="Path_23060" data-name="Path 23060" d="M-36.16-29.622s4.614-11.191-7.141-8.161c-6.7,2.123-6.889,9.44-3.06,11.222a22.19,22.19,0,0,0,6.121,2.04s3.918,4.359-7.141,1.02c-7.239-2.186-5.465-12.9,0-16.323s10.151-4.315,13.262,0,1.464,7.253,0,9.181-2.243,2.712-2.04,1.02" transform="translate(52.169 42.736)" fill="#fff"/>
      </g>
      <g id="Group_7756" data-name="Group 7756" transform="translate(85.896 3.083)">
        <path id="Path_23061" data-name="Path 23061" d="M-25.823-.489c-.435.386-11.993,7.952-11.411,10.861s6.788,12.218,6.788,12.218S-17.064,11.341-16.288,9.208s-7.564-11.442-9.534-9.7" transform="translate(37.255 0.706)" fill="#fff"/>
      </g>
      <g id="Group_7757" data-name="Group 7757" transform="translate(82.971 0)">
        <path id="Path_23062" data-name="Path 23062" d="M-34.216,0c-.3-.068-9.69,6.28-11,7.069S-46,11-46,11a13.924,13.924,0,0,0-2.356,0c-.691.127-1.877,2.21,0,3.927S-41.7,26.064-41.285,27.49s3.156,4.025,3.142.786.484-3.465-1.571-6.284-3.3-4.325-3.927-5.5-1.706-3.5.785-5.5,7.912-6.643,9.426-5.5a34.119,34.119,0,0,1,5.5,6.284c.82,1.39,2.879,3.486,1.571,4.713s-7.855,8.64-7.855,8.64-1.946,1.236.786.786a13.885,13.885,0,0,0,6.283-3.142c1.181-1,6.151-4.814,6.284-5.5s.892-2.622-1.571-5.5-9.338-10.121-10.211-11S-32.809.311-34.216,0" transform="translate(49.365 0.002)" fill="#fff"/>
      </g>
    </g>
  </g>
</svg>
